<?xml version="1.0" encoding="utf-8"?>
<svg viewBox="3.0233 4.8145 492.1476 114.6199" xmlns="http://www.w3.org/2000/svg">
  <g transform="matrix(3.0712730884552, 0, 0, 3.0712730884552, 501.9107666015625, -2620.803955078125)" id="g6" style="">
    <g transform="translate(-178.6945,177.9348)" id="g1877">
      <g style="fill:#ffffff;fill-rule:evenodd;stroke-width:0;stroke-linecap:butt;stroke-linejoin:miter;stroke-miterlimit:2.61310005" id="g1879"/>
      <g style="fill:#042274;fill-rule:evenodd;stroke-width:0;stroke-linecap:butt;stroke-linejoin:miter;stroke-miterlimit:2.61310005" id="g1883">
        <path d="M 25.9063,683.121 C 22.0352,685.914 19.5313,690.484 19.5313,695.621 C 19.5313,704.121 26.418,711.008 34.918,711.008 C 35.0586,711.008 35.2031,711.008 35.3477,711.004 L 26.3438,697.598 C 26.0391,697.207 25.8516,696.719 25.8516,696.184 C 25.8516,694.93 26.8711,693.914 28.125,693.914 L 39.875,693.914 L 29.1289,677.883 C 30.9531,677.285 32.8906,676.961 34.918,676.961 C 45.2227,676.961 53.5781,685.316 53.5781,695.621 C 53.5781,702.996 49.3008,709.371 43.0938,712.402 L 34.3008,699.48 L 35.3164,699.48 L 45.9375,699.48 C 45.9297,701.258 44.5,702.688 42.7344,702.688 L 40.5898,702.691 C 40.4102,702.691 40.2031,702.602 40.0781,702.543 C 40.2031,702.613 40.3984,702.734 40.5,702.871 L 44.0352,708.016 C 47.8398,705.215 50.3047,700.707 50.3047,695.621 C 50.3047,687.125 43.4141,680.234 34.918,680.234 C 34.8203,680.234 34.7227,680.234 34.6289,680.238 L 43.5742,693.582 C 43.5938,693.613 43.6133,693.645 43.6328,693.672 C 43.8555,694.023 43.9883,694.441 43.9883,694.891 C 43.9883,696.145 42.9688,697.16 41.7148,697.16 C 41.6797,697.16 41.6406,697.16 41.6055,697.16 L 29.9414,697.16 L 40.8242,713.328 C 38.9648,713.945 36.9805,714.281 34.918,714.281 C 24.6133,714.281 16.2578,705.93 16.2578,695.621 C 16.2578,688.191 20.5977,681.777 26.8828,678.773 L 35.5313,691.559 L 34.5195,691.559 L 23.8984,691.559 C 23.9063,689.781 25.3359,688.352 27.0977,688.352 L 29.2461,688.348 C 29.4258,688.352 29.6289,688.437 29.7539,688.5 C 29.6328,688.43 29.4375,688.305 29.3359,688.172 L 25.9063,683.121 z " style="fill:#042274" id="path1885"/>
      </g>
      <g style="fill:#042274;fill-rule:evenodd;stroke-width:0;stroke-linecap:butt;stroke-linejoin:miter;stroke-miterlimit:2.61310005" id="g1887">
        <path d="M 126.262,700.605 C 126.262,704.949 128.977,707.879 132.953,707.879 C 137.273,707.879 140.004,705.094 140.004,700.652 C 140.004,696.645 137.043,693.734 132.953,693.734 C 129.078,693.734 126.262,696.652 126.262,700.605 z M 143.586,700.605 C 143.586,706.793 139.285,710.969 133,710.969 C 126.984,710.969 122.68,706.621 122.68,700.605 C 122.68,695 127.152,690.645 133,690.645 C 139.16,690.645 143.586,694.828 143.586,700.605 z " style="fill:#042274" id="path1889"/>
      </g>
      <g style="fill:#042274;fill-rule:evenodd;stroke-width:0;stroke-linecap:butt;stroke-linejoin:miter;stroke-miterlimit:2.61310005" id="g1891">
        <path d="M 102.227,695.547 C 99.6641,694.223 97.2734,693.484 95.5625,693.484 C 93.6016,693.484 92.2461,694.281 92.2461,695.555 C 92.2461,698.148 103.391,700.242 103.391,705.219 C 103.391,708.984 100.762,710.883 96.418,710.883 C 93.6133,710.883 91.2227,710.406 88.2227,709.129 L 88.2227,705.266 C 90.8945,706.969 93.9453,707.871 95.832,707.871 C 97.7656,707.781 99.4883,706.988 99.4883,705.352 C 99.4883,702.496 88.2383,700.957 88.2383,695.488 C 88.2383,692.531 90.6953,690.473 95.3359,690.473 C 97.4531,690.473 99.7891,690.984 102.227,692.043 L 102.227,695.547 z " style="fill:#042274" id="path1893"/>
      </g>
      <g style="fill:#042274;fill-rule:evenodd;stroke-width:0;stroke-linecap:butt;stroke-linejoin:miter;stroke-miterlimit:2.61310005" id="g1895">
        <path d="M 69.0273,693.863 L 82.1719,693.863 L 82.1719,697.121 L 69.0156,697.121 C 68.9688,702.801 74.0352,707.141 77.7422,707.141 L 84.8828,707.141 L 84.8828,710.398 L 78.5859,710.398 C 70.832,710.398 64.8711,703.758 64.8711,695.555 C 64.8711,687.348 70.832,680.711 78.5859,680.711 L 84.8828,680.711 L 84.8828,683.969 L 77.7422,683.969 C 74.0625,683.969 69.0547,688.473 69.0273,693.863 z " style="fill:#042274" id="path1897"/>
      </g>
      <g style="fill:#042274;fill-rule:evenodd;stroke-width:0;stroke-linecap:butt;stroke-linejoin:miter;stroke-miterlimit:2.61310005" id="g1899">
        <path d="M 172.918,710.398 L 176.5,710.398 L 176.5,698.305 C 176.5,693.035 173,690.457 168.543,690.457 C 165.801,690.457 163.055,691.379 161.785,693.918 C 160.074,690.996 157.766,690.457 155.66,690.457 C 153.473,690.457 150.887,691.266 149.934,693.305 L 149.852,693.305 L 149.852,691.023 L 146.273,691.023 L 146.273,710.398 L 149.852,710.398 L 149.852,698.844 C 149.852,695.496 152.078,693.688 155.063,693.688 C 157.527,693.688 159.598,695.227 159.598,698.688 L 159.598,710.398 L 163.176,710.398 L 163.176,698.844 C 163.176,695.496 165.402,693.688 168.387,693.688 C 170.852,693.688 172.918,695.227 172.918,698.688 L 172.918,710.398 z " style="fill:#042274" id="path1901"/>
      </g>
      <g style="fill:#042274;fill-rule:evenodd;stroke-width:0;stroke-linecap:butt;stroke-linejoin:miter;stroke-miterlimit:2.61310005" id="g1903">
        <path d="M 114.5,700.629 C 114.5,700.629 118.367,705.094 120.992,707.805 C 121.852,708.805 122.809,709.77 123.863,710.691 L 121.391,710.691 C 121.391,710.691 119.887,710.672 119.02,710.32 C 117.797,709.824 116.461,708.105 116.461,708.105 L 109.992,700.637 L 117.387,691.023 L 122.098,691.023 L 114.5,700.629 z " style="fill:#042274" id="path1905"/>
      </g>
      <g style="fill:#042274;fill-rule:evenodd;stroke-width:0;stroke-linecap:butt;stroke-linejoin:miter;stroke-miterlimit:2.61310005" id="g1907">
        <path d="M 109.848,710.398 L 106.355,710.398 L 106.355,680.711 L 109.848,680.711 L 109.848,710.398 z " style="fill:#042274" id="path1909"/>
      </g>
    </g>
  </g>
</svg>