<!--?xml version="1.0" encoding="utf-8"?-->
<!-- Generator: Adobe Illustrator 19.1.1, SVG Export Plug-In . SVG Version: 6.00 Build 0)  -->
<svg version="1.1" id="_x31_0" xmlns="http://www.w3.org/2000/svg" xmlns:xlink="http://www.w3.org/1999/xlink" x="0px" y="0px" viewBox="0 0 512 512" style="width: 56px; height: 56px; opacity: 1;" xml:space="preserve">
<style type="text/css">

.ipc{fill:#000;}

.danger_zone {

    fill:
    -moz-transition:all 0.5s ease-in-out;
    -webkit-transition:all 0.5s ease-in-out;
    -o-transition:all 0.5s ease-in-out;
    -ms-transition:all 0.5s ease-in-out;
    transition:all 0.5s ease-in-out;
    -moz-animation:blink normal 1.5s infinite ease-in-out;
    /* Firefox */
    -webkit-animation:blink normal 1.5s infinite ease-in-out;
    /* Webkit */
    -ms-animation:blink normal 1.5s infinite ease-in-out;
    /* IE */
    animation:blink normal 1.5s infinite ease-in-out;
    /* Opera */
}
.blink{
  width:400px;
  height:400px;
  border:1px solid black;
  animation: blink 5s linear infinite; animation-timing-function: ease-in, ease-in-out;}

@keyframes blink {
    0% {
           fill: rgba(255,0,0,1)
    }
    50% {
           fill: rgba(255,0,0,0.2)
    }
    100% {
           fill: rgba(255,0,0,1)
    }
}
@-webkit-keyframes blink {
    0% {
           fill: rgba(255,0,0,1)
    }
    50% {
           fill: rgba(255,0,0,0.5)
    }
    100% {
           fill: rgba(255,0,0,1)
    }
}

</style>


<g>
	<path class="ipc" d="M316.848,448.176c-1.855-1.274-3.805-2.422-5.57-3.805l0.031,0.152c-0.062-0.042-0.125-0.078-0.187-0.121
		l7.59,38.961l1.418,7.438h-5.168l-61.074-48.614l-13.379-10.691l34.133-27.176c-3.234-5.484-6.023-11.258-8.465-17.187
		c-0.293-0.766-0.683-1.519-0.953-2.289l-0.035,0.023c-0.019-0.05-0.047-0.098-0.066-0.149l-41.84,33.199l-44.957-35.766
		l-9.817-7.855l54.774-43.578l19.57,15.555l14.594,11.754c-0.011-0.058-0.011-0.113-0.023-0.172l0.18,0.145
		c-1.282-7.359-1.922-14.961-1.922-22.718c0-1.922,0.082-3.922,0.16-5.84l-2.238-1.762l-1.36-1.039l-9.77-7.844l-1.965-1.621
		l19.332-15.414c7.203-28.246,23.336-52.977,45.172-70.996c2.875-2.344,5.828-4.602,8.91-6.711l-0.058-0.031
		c0.046-0.035,0.09-0.074,0.137-0.106l-16.398-9.117v-42.562h110.801v11.726V184v0.16h21.277v-47.121L287.36,57.918l-5.918-46
		C280.559,5.121,274.723,0,267.84,0h-89.038c-6.879,0-12.719,5.121-13.602,11.918l-5.918,46L17.039,137.039v46.816V184v0.16h21.203
		v-11.922h110.719v42.562L9.52,292.402v47.054v0.145v0.16h21.282V327.68h89.281l16.715,0.027l-30.145,153.992l-5.93,30.141h0.031
		l-0.031,0.16h38.398l2.961-2.32l20.477-16.321l14.48-11.519l46.321-36.719l81.281,64.559l2.879,2.32h38.402l-10.402-53.282
		C328.972,455.75,322.808,452.121,316.848,448.176z M408.403,149.602v1.359H354.98l-42.41-0.129l41.59-31.473L408.403,149.602z
		 M321.403,101.145l12.382,6.98L310.832,125.5l-13.637,10.207c0.07-0.836,0.078-1.672-0.074-2.586l-0.718-5.679l-5.602-43.359
		L321.403,101.145z M223.281,303.602l-34.558-27.519h38.766l30.355,0.121L223.281,303.602z M216.684,254.801l-31.371-0.114
		l37.969-37.969l22.262,22.262l15.657,15.82H216.684z M229.746,148.641l31.5,0.11l-37.965,37.89l-38-38H229.746z M185.312,127.328
		l37.969-37.969l22.262,22.262l15.657,15.821h-44.516L185.312,127.328z M276.403,208.012l-0.114,31.637l-37.886-37.887
		l29.437-29.523l8.563-8.558V208.012z M269.07,81.562l3.344,26.848L238.32,74.32l26.402-26.402L269.07,81.562z M185.441,21.282
		h34.516l41.211,0.187l-37.887,37.89l-37.84-37.918V21.282z M182,48l26.32,26.32l-19.094,19.094l-15.039,14.863L182,48z
		 M170.242,163.68l38.078,38.082l-22.317,22.27l-15.762,15.57V163.68z M159.121,323.602l3.282-17.043l4.156-20.957l32.453,25.84
		l7.203,5.777l-11.812,9.422l-1.364,1.039l-24.683,19.594l-16.398,12.863l6.363-32.457L159.121,323.602z M38.242,150.961v-1.359
		l54.317-30.242l23.152,17.551l18.325,14.05H38.242z M123.024,115.836l-10.16-7.789l42.976-23.965l-5.598,43.359l-0.722,5.679
		c-0.078,0.954-0.078,1.825,0,2.696h-0.039l-0.519-0.298L123.024,115.836z M30.801,306.481v-1.52l46.961-26.16l23.93,14.946
		l20.137,12.734H30.801z M113.231,275.871l-14.195-8.954l49.926-27.797v26.161l-4.184,21.633l-1.546,7.695L113.231,275.871z
		 M131.68,490.801h-4.504l-0.691-0.027l19.195-98.371l1.52-7.844l4.16,3.282l44.859,35.699l9.996,8.004L131.68,490.801z"></path>
	<path class="danger_zone" d="M391.039,223.84c-19.199,0-37.277,4.878-53.038,13.442c-6.962,3.758-13.52,8.32-19.442,13.437
		c-7.359,6.242-13.918,13.52-19.359,21.52c-6.797,9.844-12,20.882-15.278,32.722c-2.801,9.598-4.242,19.84-4.242,30.321
		c0,4.636,0.321,9.277,0.879,13.758c1.762,14.48,6.32,28.082,13.043,40.242c2.801,5.038,6,9.839,9.519,14.32
		c7.438,9.598,16.32,17.84,26.481,24.481c17.598,11.758,38.718,18.558,61.437,18.558c61.602,0,111.442-49.84,111.442-111.359
		C502.48,273.68,452.64,223.84,391.039,223.84z M434.242,322.641l-11.281,17.121L381.84,402.32c-1.038,1.598-2.718,2.321-4.32,2.321
		c-3.199,0-6.32-2.558-5.039-6.082l18.879-52.878l-40.321,6.238h-0.48c-2.238,0-3.836-2.078-2.797-3.918l11.519-20.32l12.078-21.199
		l11.363-20l10.316-18.078c0.082-0.082,0.161-0.242,0.321-0.32c0.882-1.524,2.48-2.242,4.16-2.242c3.039,0,6.082,2.32,5.121,5.762
		l-0.398,1.438l-5.839,21.043l-3.442,12.398l-3.305,12.066l-1.27,4.414l0.062-0.008l-0.046,0.168l42.797-4.562
		c0.16-0.078,0.32-0.078,0.402-0.078C433.922,318.481,435.52,320.801,434.242,322.641z"></path>
</g>
</svg>
